<?xml version="1.0" standalone="no"?>
<!DOCTYPE svg PUBLIC "-//W3C//DTD SVG 20010904//EN"
 "http://www.w3.org/TR/2001/REC-SVG-20010904/DTD/svg10.dtd">
<svg version="1.0" xmlns="http://www.w3.org/2000/svg"
 width="300.000000pt" height="300.000000pt" viewBox="0 0 300.000000 300.000000"
 preserveAspectRatio="xMidYMid meet">
<metadata>
Created by potrace 1.10, written by Peter Selinger 2001-2011
</metadata>
<g transform="translate(0.000000,300.000000) scale(0.100000,-0.100000)"
fill="#000000" stroke="none">
<path d="M1395 2536 c-179 -44 -317 -170 -382 -350 -8 -22 -17 -52 -19 -66 -2
-14 -6 -36 -8 -50 -3 -14 -5 -37 -5 -52 -1 -22 -6 -28 -24 -28 -13 0 -27 4
-32 9 -35 32 -221 46 -264 19 -64 -39 -44 -230 35 -334 34 -45 106 -91 168
-108 128 -36 122 -36 156 -7 l32 26 -89 0 c-73 0 -96 4 -138 25 -114 56 -185
167 -185 291 0 50 4 64 25 84 21 22 33 25 90 25 66 0 168 -27 209 -56 11 -8
24 -14 28 -14 5 0 8 33 8 73 0 80 31 188 72 255 36 59 109 132 172 174 83 53
172 79 276 81 148 1 268 -49 375 -157 99 -100 155 -233 155 -364 l0 -61 68 32
c88 42 203 51 242 19 23 -18 25 -27 24 -90 -4 -175 -130 -309 -301 -320 l-73
-5 33 -16 c41 -21 48 -62 17 -97 -44 -46 -118 -43 -176 8 -41 36 -45 25 -6
-21 22 -26 37 -34 74 -38 26 -3 58 -3 72 1 34 8 80 77 71 105 -4 14 -2 23 7
25 7 3 39 12 71 21 66 18 133 72 172 139 47 80 71 227 45 275 -19 37 -67 54
-134 47 -57 -5 -115 -21 -143 -39 -29 -19 -53 15 -53 79 0 41 -37 148 -73 209
-68 118 -226 231 -356 255 -71 13 -174 11 -236 -4z"/>
<path d="M1423 2475 c-280 -61 -446 -360 -351 -634 10 -31 30 -73 44 -94 25
-37 25 -39 10 -91 -19 -64 -66 -131 -112 -158 -44 -26 -35 -38 26 -38 89 0
222 56 253 107 6 10 13 10 32 -3 70 -46 230 -57 337 -24 409 126 459 694 80
893 -105 55 -201 68 -319 42z m238 -25 c82 -26 182 -94 216 -145 24 -37 21
-35 -38 21 -73 69 -119 96 -206 118 -153 40 -302 -4 -432 -128 -35 -33 -59
-51 -53 -40 15 28 117 121 156 141 100 53 250 67 357 33z m-62 -25 c95 -20
156 -52 222 -118 112 -113 139 -172 139 -308 0 -307 -292 -515 -585 -415 l-70
24 -70 -43 c-65 -40 -135 -66 -135 -50 0 4 8 19 19 33 23 32 51 114 51 146 0
13 -16 57 -35 97 -75 159 -70 301 16 430 66 98 165 168 281 199 90 23 82 23
167 5z"/>
<path d="M1405 2384 c-48 -16 -90 -39 -123 -68 -113 -97 -146 -168 -147 -311
0 -118 26 -187 104 -268 78 -82 158 -119 265 -125 72 -4 90 -1 151 23 171 69
271 220 258 391 -14 178 -111 300 -288 359 -54 19 -162 18 -220 -1z m272 -60
c81 -39 128 -87 171 -174 23 -47 27 -67 27 -145 0 -78 -4 -98 -27 -145 -43
-87 -90 -135 -175 -177 -67 -33 -84 -37 -147 -37 -98 2 -171 32 -245 100 -80
74 -114 149 -113 253 0 109 29 179 103 254 120 119 256 143 406 71z"/>
<path d="M1429 2306 c-86 -31 -155 -92 -191 -171 -34 -75 -33 -201 4 -270 32
-60 87 -114 148 -146 37 -20 59 -24 130 -23 94 0 137 14 201 65 40 32 99 121
98 149 0 8 -7 -2 -16 -22 -8 -21 -20 -38 -25 -38 -6 0 -7 7 -2 18 4 9 9 34 12
55 4 34 2 37 -21 37 -53 0 -74 75 -36 124 21 26 62 35 74 16 11 -17 23 -11 18
10 -9 34 -30 45 -59 29 -22 -11 -27 -11 -35 1 -14 23 -6 45 19 48 32 5 24 21
-31 63 -86 65 -200 87 -288 55z m146 -16 c4 -6 11 -8 16 -4 19 12 58 -39 81
-105 19 -54 23 -87 23 -186 0 -145 -14 -201 -63 -249 -39 -40 -63 -48 -38 -13
29 39 65 120 77 172 15 68 -8 230 -45 310 l-26 57 -19 -23 c-19 -23 -19 -24
-40 -5 -29 27 -28 56 3 56 14 0 28 -5 31 -10z m-100 -10 c3 -5 -6 -21 -22 -34
-21 -18 -25 -28 -17 -36 9 -9 17 -5 33 15 l21 27 25 -23 c34 -32 31 -44 -12
-66 -21 -10 -47 -32 -58 -49 -17 -27 -25 -31 -51 -27 -34 6 -50 -8 -40 -34 5
-12 9 -13 21 -3 18 15 19 15 33 -29 11 -31 10 -33 -8 -28 -17 4 -20 0 -20 -23
0 -58 20 -128 37 -126 9 0 18 -5 21 -13 3 -10 0 -12 -12 -8 -24 10 -20 -13 14
-66 32 -50 28 -59 -12 -27 -41 32 -72 114 -74 201 -3 67 -6 80 -28 102 -13 13
-30 43 -37 65 -10 36 -9 44 12 83 23 42 32 49 114 88 49 23 52 24 60 11z m140
-103 c11 -26 45 -191 45 -219 0 -13 -46 6 -87 35 -28 20 -58 31 -91 35 -37 3
-49 8 -48 20 1 17 81 102 96 102 5 0 17 14 27 30 23 39 41 38 58 -3z m-300
-168 c10 -10 17 -40 18 -76 2 -32 7 -65 12 -73 5 -9 4 -15 -3 -18 -8 -2 -7 -8
3 -19 8 -8 15 -22 15 -31 0 -24 -79 57 -87 88 -3 14 -13 33 -21 43 -11 12 -15
35 -13 79 1 35 5 67 8 72 4 5 17 -4 30 -20 13 -16 30 -36 38 -45z m224 -24
c16 -8 31 -21 34 -30 4 -8 15 -15 25 -15 27 0 45 -25 38 -52 -3 -13 -24 -45
-47 -73 -23 -27 -48 -65 -56 -84 -13 -31 -16 -32 -30 -18 -9 8 -18 39 -21 69
-2 30 -12 62 -22 73 -31 36 -42 65 -34 98 3 18 12 35 18 39 18 12 65 9 95 -7z
m221 -62 c-1 -58 -26 -112 -52 -113 -8 0 0 108 8 122 10 16 44 8 44 -9z"/>
<path d="M684 1956 c-9 -23 4 -111 22 -155 19 -45 78 -107 126 -132 50 -26
125 -41 162 -33 l30 6 -40 36 c-91 81 -224 214 -224 223 0 27 43 -3 175 -122
81 -72 148 -129 150 -127 18 19 -62 204 -107 244 -50 46 -109 67 -200 72 -75
4 -89 2 -94 -12z m76 -25 c0 -6 -4 -13 -10 -16 -26 -16 -5 -51 80 -136 50 -49
90 -91 90 -94 0 -11 -38 -4 -49 8 -6 8 -29 19 -51 26 -32 9 -44 20 -61 54 -24
45 -50 147 -43 159 7 11 44 10 44 -1z m127 -13 c51 -22 83 -49 103 -88 11 -22
20 -47 20 -55 0 -19 -28 2 -116 86 -29 27 -57 49 -62 49 -6 0 -14 5 -17 10 -9
14 38 13 72 -2z"/>
<path d="M2162 1951 c-76 -26 -120 -66 -140 -126 -55 -164 -221 -310 -389
-346 -75 -15 -202 -7 -275 18 -44 15 -58 17 -62 7 -3 -7 -40 -30 -82 -51 -71
-35 -85 -38 -160 -38 -67 0 -86 3 -103 20 -25 21 -22 56 7 88 14 16 14 17 0
12 -30 -12 -41 -58 -25 -106 18 -53 46 -63 153 -57 78 5 158 41 198 89 21 24
25 26 38 13 24 -24 117 -44 203 -44 182 0 285 56 482 261 138 144 242 234 256
220 9 -9 -20 -43 -117 -140 -70 -71 -124 -131 -119 -134 5 -3 37 -2 72 3 143
20 232 123 235 270 l1 55 -60 2 c-38 2 -79 -4 -113 -16z m-22 -83 c-29 -29
-59 -63 -67 -75 -21 -32 -32 -20 -23 24 9 38 31 60 85 87 56 29 58 16 5 -36z
m154 -15 c-16 -73 -63 -137 -108 -149 -14 -3 -26 -10 -26 -15 0 -5 -9 -9 -19
-9 -32 0 -19 21 57 95 40 39 75 78 78 88 9 28 25 19 18 -10z"/>
<path d="M1943 1563 c-12 -2 -27 -11 -34 -20 -11 -13 -10 -18 6 -30 29 -21 64
-27 94 -17 40 14 39 42 -3 59 -19 8 -37 14 -38 14 -2 -1 -13 -4 -25 -6z"/>
<path d="M514 1391 c-40 -24 -80 -77 -88 -116 -4 -17 0 -58 9 -93 15 -59 15
-62 -5 -89 -19 -27 -20 -31 -5 -73 9 -25 21 -52 28 -61 18 -24 65 -51 76 -45
5 4 12 2 16 -4 7 -11 116 -14 153 -4 15 4 22 14 22 30 0 22 -1 23 -35 8 -41
-17 -58 -17 -127 -3 -39 9 -63 22 -90 49 -44 44 -49 78 -14 111 l23 23 -18 40
c-39 85 -10 173 71 214 75 38 159 23 221 -39 36 -36 39 -37 126 -40 79 -4 94
-7 125 -31 32 -24 37 -26 49 -12 19 24 50 38 99 45 l45 6 -40 2 c-23 0 -58 -8
-80 -19 l-39 -20 -45 22 c-36 17 -62 22 -117 20 -67 -1 -73 0 -97 28 -15 16
-45 39 -66 50 -54 27 -153 28 -197 1z"/>
<path d="M1673 1394 c11 -13 17 -37 17 -67 0 -38 3 -45 16 -40 11 4 12 9 5 16
-6 6 -11 25 -11 42 0 21 -8 39 -22 51 -23 19 -23 19 -5 -2z"/>
<path d="M1792 1394 c-15 -10 -22 -25 -22 -49 0 -24 -5 -35 -17 -38 -14 -4
-12 -5 5 -6 19 -1 22 4 22 32 0 48 25 67 88 67 81 0 92 -17 92 -141 0 -89 2
-100 15 -89 8 7 15 22 15 34 0 68 164 125 228 81 19 -14 24 -14 46 1 38 24
220 17 258 -11 49 -35 68 -90 68 -192 0 -111 -12 -132 -82 -140 -40 -5 -50 -2
-72 20 -17 17 -26 21 -26 12 0 -33 -31 -37 -290 -37 -402 0 -399 0 -417 21
l-17 20 -19 -20 c-17 -18 -31 -20 -135 -20 -189 0 -196 0 -221 19 -23 17 -25
17 -69 -5 -25 -13 -55 -23 -67 -23 -35 0 -112 30 -130 50 -17 19 -18 19 -47
-5 -16 -14 -47 -28 -69 -31 -23 -4 -39 -12 -39 -20 0 -28 77 -9 118 28 l22 21
23 -21 c45 -42 137 -56 187 -27 47 27 51 28 64 9 12 -16 33 -18 178 -21 155
-3 166 -2 183 17 17 19 19 19 38 3 17 -16 50 -18 347 -20 256 -1 333 2 347 12
14 11 19 10 28 -2 7 -9 29 -14 64 -15 44 0 58 4 79 25 23 23 26 37 33 132 6
92 5 113 -11 150 -21 49 -60 80 -116 93 -44 10 -201 4 -224 -8 -9 -5 -23 -4
-33 1 -32 19 -124 12 -169 -11 -24 -12 -46 -27 -49 -32 -14 -23 -29 6 -29 56
0 72 -25 96 -101 96 -33 0 -63 -6 -77 -16z"/>
<path d="M1510 1335 c0 -13 -7 -28 -15 -32 -12 -7 -11 -10 5 -21 19 -11 20 -9
20 33 0 25 -2 45 -5 45 -3 0 -5 -11 -5 -25z"/>
<path d="M1570 1170 l0 -186 35 4 c32 4 35 7 35 36 0 18 6 40 13 49 11 14 16
11 47 -33 l35 -50 152 0 c149 0 151 0 146 21 -5 19 -3 18 21 -6 24 -24 33 -27
69 -22 23 3 47 14 54 23 12 16 13 16 13 1 0 -13 9 -17 35 -17 l35 0 0 89 c0
102 -9 133 -44 156 -35 23 -119 22 -157 -2 -30 -19 -30 -20 -11 -43 15 -19 22
-21 40 -11 29 16 68 14 86 -5 25 -25 19 -32 -28 -32 -57 0 -97 -20 -114 -55
-12 -25 -18 -27 -68 -27 l-54 0 0 145 0 145 -40 0 -40 0 -2 -176 -3 -175 -53
66 -53 67 50 58 c28 32 51 60 51 62 0 2 -21 1 -47 0 -45 -4 -51 -7 -90 -59
l-43 -56 0 110 0 109 -35 0 -35 0 0 -186z m67 -46 c3 -8 -2 -23 -11 -32 -15
-15 -16 -14 -16 16 0 33 16 43 27 16z m553 -43 c0 -19 -32 -41 -61 -41 -22 0
-29 5 -29 19 0 11 6 22 13 24 21 9 77 7 77 -2z"/>
<path d="M554 1340 c-36 -14 -64 -59 -64 -102 0 -67 27 -92 126 -118 47 -11
61 -32 38 -55 -22 -22 -56 -18 -99 11 l-38 25 -26 -26 -26 -26 28 -24 c93 -81
248 -42 251 63 1 53 -23 78 -93 98 -53 16 -91 38 -91 55 0 4 7 15 17 24 19 20
67 14 95 -12 18 -16 20 -16 43 12 22 28 23 31 7 44 -46 37 -120 51 -168 31z"/>
<path d="M1220 1289 c13 -6 32 -17 41 -25 14 -13 21 -12 60 11 48 27 46 34 -2
9 -28 -14 -34 -14 -64 0 -18 9 -39 16 -47 15 -7 0 -2 -5 12 -10z"/>
<path d="M880 1248 c-13 -5 -28 -14 -32 -21 -5 -8 -8 -6 -8 6 0 13 -9 17 -37
17 l-38 0 2 -167 1 -168 37 -3 37 -3 -4 55 c-1 31 -2 56 0 56 2 0 10 -7 18
-15 20 -20 78 -19 110 1 36 24 54 65 54 123 0 41 -5 56 -27 81 -33 36 -78 51
-113 38z m50 -78 c27 -27 25 -66 -4 -95 -39 -39 -86 -15 -86 43 0 64 50 92 90
52z"/>
<path d="M1366 1245 c-53 -19 -60 -28 -39 -54 16 -19 21 -20 49 -10 41 16 84
5 84 -22 0 -15 -5 -19 -17 -15 -28 9 -93 -10 -119 -35 -29 -27 -31 -68 -5
-100 25 -31 98 -34 130 -5 21 19 21 19 21 0 0 -16 7 -20 35 -20 34 0 35 1 34
41 -1 106 -15 175 -40 199 -31 30 -84 39 -133 21z m94 -168 c0 -21 -22 -37
-51 -37 -33 0 -45 15 -29 35 16 19 80 20 80 2z"/>
<path d="M1092 1234 c-34 -23 -52 -67 -52 -126 0 -63 18 -94 66 -114 47 -20
93 -17 132 6 38 23 39 31 11 48 -15 10 -24 11 -32 3 -25 -25 -107 -6 -107 24
0 12 18 15 90 15 100 0 100 0 80 72 -15 54 -61 88 -119 88 -26 0 -56 -7 -69
-16z m106 -56 c26 -26 13 -38 -38 -38 -51 0 -64 12 -38 38 15 15 61 15 76 0z
m-107 -81 c-18 -18 -38 8 -21 28 12 15 14 15 23 0 6 -11 5 -21 -2 -28z"/>
<path d="M2290 1117 l0 -133 40 4 40 4 0 83 c0 69 3 85 20 100 17 15 24 16 45
7 24 -11 25 -15 25 -100 0 -49 2 -91 5 -93 2 -3 20 -3 40 -1 l35 4 0 90 c0
127 -25 168 -102 168 -19 0 -44 -7 -56 -16 -20 -14 -22 -14 -22 0 0 12 -10 16
-35 16 l-35 0 0 -133z"/>
<path d="M710 893 c0 -16 40 -73 52 -73 6 0 19 -7 29 -16 16 -15 17 -14 12 5
-3 12 -9 21 -14 21 -5 0 -24 16 -44 35 -19 20 -35 32 -35 28z"/>
<path d="M1766 849 c-19 -47 -16 -55 13 -39 14 7 21 7 21 0 0 -5 7 -10 15 -10
14 0 13 4 0 38 -24 56 -31 57 -49 11z"/>
<path d="M848 840 c4 -34 7 -40 28 -40 13 0 24 5 24 10 0 6 -7 10 -15 10 -10
0 -15 10 -15 30 0 18 -5 30 -13 30 -9 0 -11 -12 -9 -40z"/>
<path d="M928 840 c-17 -41 -11 -48 22 -30 13 7 19 6 24 -6 3 -8 10 -13 15
-10 12 7 -20 86 -34 86 -5 0 -18 -18 -27 -40z"/>
<path d="M1012 840 c0 -22 3 -40 9 -40 5 0 9 10 9 23 l1 22 18 -22 c28 -34 41
-28 41 17 0 22 -4 40 -10 40 -5 0 -10 -10 -10 -22 l-1 -23 -18 23 c-28 32 -39
27 -39 -18z"/>
<path d="M1116 864 c-22 -21 -20 -40 6 -58 15 -11 26 -12 40 -5 22 12 24 39 2
39 -8 0 -12 -4 -9 -10 3 -5 -1 -10 -9 -10 -9 0 -16 9 -16 20 0 13 7 20 20 20
11 0 20 5 20 10 0 16 -37 12 -54 -6z"/>
<path d="M1200 845 c0 -40 31 -65 56 -44 16 13 19 79 4 79 -5 0 -10 -13 -10
-30 0 -20 -5 -30 -15 -30 -10 0 -15 10 -15 30 0 17 -4 30 -10 30 -5 0 -10 -16
-10 -35z"/>
<path d="M1303 853 c-15 -31 -18 -76 -4 -54 6 9 18 11 39 6 l31 -6 -17 40
c-20 48 -32 51 -49 14z"/>
<path d="M1390 866 c-6 -8 -10 -25 -8 -38 2 -18 9 -23 33 -23 23 0 30 5 30 19
0 11 -6 21 -14 24 -10 3 -12 0 -8 -12 4 -10 1 -16 -8 -16 -8 0 -15 9 -15 20 0
15 7 20 26 20 14 0 23 4 19 10 -9 15 -41 12 -55 -4z"/>
<path d="M1472 840 c2 -38 3 -40 35 -40 38 0 42 7 11 20 -18 7 -19 9 -5 9 9 1
17 6 17 12 0 6 -7 9 -15 5 -8 -3 -15 -1 -15 4 0 6 7 10 15 10 8 0 15 5 15 10
0 6 -14 10 -30 10 -30 0 -31 -2 -28 -40z"/>
<path d="M1600 840 c0 -38 2 -40 31 -40 17 0 28 4 24 10 -3 6 -13 10 -21 10
-9 0 -14 11 -14 30 0 17 -4 30 -10 30 -5 0 -10 -18 -10 -40z"/>
<path d="M1670 840 c0 -38 2 -40 30 -40 35 0 41 19 8 21 -22 1 -22 1 2 9 l25
7 -25 11 c-24 10 -24 11 -2 11 34 1 26 21 -8 21 -28 0 -30 -2 -30 -40z"/>
<path d="M1850 841 c0 -23 5 -41 10 -41 6 0 10 6 10 13 1 7 6 5 14 -5 19 -26
22 -23 22 25 -1 38 -3 42 -28 45 -27 3 -28 1 -28 -37z"/>
<path d="M1930 841 c0 -22 5 -43 10 -46 6 -4 10 5 10 20 l0 26 24 -28 24 -27
3 47 c3 31 0 47 -7 47 -8 0 -10 -9 -7 -22 l6 -23 -25 23 c-33 30 -38 28 -38
-17z"/>
<path d="M2030 834 c0 -27 4 -43 10 -39 6 3 10 24 10 46 0 21 -4 39 -10 39 -5
0 -10 -21 -10 -46z"/>
<path d="M2080 863 c0 -10 -3 -28 -6 -40 -5 -17 -2 -23 11 -23 12 0 15 5 9 23
-6 20 -4 20 25 -7 l31 -30 0 47 c0 46 -19 69 -21 25 l0 -23 -16 23 c-19 26
-33 29 -33 5z"/>
<path d="M2180 866 c-21 -26 -8 -61 24 -64 16 -2 33 1 39 7 14 14 1 42 -17 35
-8 -3 -12 -12 -9 -20 4 -10 0 -12 -11 -8 -24 9 -15 38 12 42 12 2 22 8 22 13
0 14 -46 10 -60 -5z"/>
<path d="M547 843 c-17 -17 -2 -23 53 -23 47 0 60 3 60 15 0 11 -13 15 -53 15
-30 0 -57 -3 -60 -7z"/>
<path d="M2350 835 c0 -12 13 -15 60 -15 47 0 60 3 60 15 0 12 -13 15 -60 15
-47 0 -60 -3 -60 -15z"/>
</g>
</svg>
